<svg width="15" height="11" viewBox="0 0 15 11" fill="none" xmlns="http://www.w3.org/2000/svg">
<path d="M1.19043 5.33344C1.19043 6.64838 2.25642 7.71439 3.57138 7.71439C4.88635 7.71439 5.95233 6.64838 5.95233 5.33344C5.95233 4.0185 4.88635 2.95249 3.57138 2.95249C2.25642 2.95249 1.19043 4.0185 1.19043 5.33344ZM1.19043 5.33344V0.571533" stroke="white" stroke-width="0.892857" stroke-linecap="round" stroke-linejoin="round"/>
<path d="M13.0949 5.33344C13.0949 6.64838 12.0289 7.71439 10.714 7.71439C9.39902 7.71439 8.33301 6.64838 8.33301 5.33344C8.33301 4.0185 9.39902 2.95249 10.714 2.95249C12.0289 2.95249 13.0949 4.0185 13.0949 5.33344ZM13.0949 5.33344V0.571533" stroke="white" stroke-width="0.892857" stroke-linecap="round" stroke-linejoin="round"/>
<path d="M8.33359 5.3335H5.95264" stroke="white" stroke-width="0.892857" stroke-linecap="round" stroke-linejoin="round"/>
</svg>
