<svg width="29" height="24" viewBox="0 0 29 24" fill="none" xmlns="http://www.w3.org/2000/svg">
<path d="M2.4165 12.9169C2.4165 15.5862 4.58046 17.7502 7.24984 17.7502C9.91922 17.7502 12.0832 15.5862 12.0832 12.9169C12.0832 10.2476 9.91922 8.08358 7.24984 8.08358C4.58046 8.08358 2.4165 10.2476 2.4165 12.9169ZM2.4165 12.9169V3.25024" stroke="white" stroke-width="2.89" stroke-linecap="round" stroke-linejoin="round"/>
<path d="M26.5832 12.9169C26.5832 15.5862 24.4192 17.7502 21.7498 17.7502C19.0805 17.7502 16.9165 15.5862 16.9165 12.9169C16.9165 10.2476 19.0805 8.08358 21.7498 8.08358C24.4192 8.08358 26.5832 10.2476 26.5832 12.9169ZM26.5832 12.9169V3.25024" stroke="white" stroke-width="2.89" stroke-linecap="round" stroke-linejoin="round"/>
<path d="M16.9168 12.917H12.0835" stroke="white" stroke-width="2.89" stroke-linecap="round" stroke-linejoin="round"/>
</svg>
