<svg width="32" height="24" viewBox="0 0 32 24" fill="none" xmlns="http://www.w3.org/2000/svg">
<g clip-path="url(#clip0_113_42)">
<path d="M0 3C0 1.34315 1.34315 0 3 0H29C30.6569 0 32 1.34315 32 3V24H0V3Z" fill="#FF0032"/>
<path d="M3.4165 9.91691C3.4165 12.5862 5.58046 14.7502 8.24984 14.7502C10.9192 14.7502 13.0832 12.5862 13.0832 9.91691C13.0832 7.24758 10.9192 5.08358 8.24984 5.08358C5.58046 5.08358 3.4165 7.24758 3.4165 9.91691ZM3.4165 9.91691V0.250244" stroke="white" stroke-width="2.89" stroke-linecap="round" stroke-linejoin="round"/>
<path d="M27.5832 9.91691C27.5832 12.5862 25.4192 14.7502 22.7498 14.7502C20.0805 14.7502 17.9165 12.5862 17.9165 9.91691C17.9165 7.24758 20.0805 5.08358 22.7498 5.08358C25.4192 5.08358 27.5832 7.24758 27.5832 9.91691ZM27.5832 9.91691V0.250244" stroke="white" stroke-width="2.89" stroke-linecap="round" stroke-linejoin="round"/>
<path d="M17.9168 9.91699H13.0835" stroke="white" stroke-width="2.89" stroke-linecap="round" stroke-linejoin="round"/>
</g>
<defs>
<clipPath id="clip0_113_42">
<path d="M0 3C0 1.34315 1.34315 0 3 0H29C30.6569 0 32 1.34315 32 3V24H0V3Z" fill="white"/>
</clipPath>
</defs>
</svg>
