<svg xmlns="http://www.w3.org/2000/svg" width="800" height="450" viewBox="0 0 800 450">
  <!-- Gradient Background -->
  <defs>
    <linearGradient id="bgGradient" x1="0%" y1="0%" x2="100%" y2="100%">
      <stop offset="0%" stop-color="#0f172a" />
      <stop offset="100%" stop-color="#1e293b" />
    </linearGradient>
    
    <!-- Glow filter for highlight effect -->
    <filter id="glow" x="-20%" y="-20%" width="140%" height="140%">
      <feGaussianBlur stdDeviation="5" result="blur" />
      <feComposite in="SourceGraphic" in2="blur" operator="over" />
    </filter>
  </defs>
  
  <!-- Background -->
  <rect width="800" height="450" fill="url(#bgGradient)" />
  
  <!-- Video Interface Elements -->
  <rect x="40" y="40" width="720" height="370" rx="8" fill="#0f1729" stroke="#374151" stroke-width="1" />
  
  <!-- Video Content Styled Transcription Lines -->
  <rect x="100" y="80" width="600" height="36" rx="4" fill="#1f2937" opacity="0.8" />
  <rect x="100" y="130" width="550" height="36" rx="4" fill="#1f2937" opacity="0.8" />
  <rect x="100" y="180" width="580" height="36" rx="4" fill="#1f2937" opacity="0.8" />
  <rect x="100" y="230" width="500" height="36" rx="4" fill="#1f2937" opacity="0.8" />
  <rect x="100" y="280" width="620" height="36" rx="4" fill="#1f2937" opacity="0.8" />
  <rect x="100" y="330" width="530" height="36" rx="4" fill="#1f2937" opacity="0.8" />
  
  <!-- Search Highlight Effect -->
  <rect x="230" y="180" width="120" height="36" rx="4" fill="#3b82f6" opacity="0.6" filter="url(#glow)" />
  
  <!-- Play Button with Gradient -->
  <circle cx="400" cy="225" r="50" fill="url(#bgGradient)" stroke="#4b5563" stroke-width="2" />
  <circle cx="400" cy="225" r="48" fill="rgba(255, 255, 255, 0.08)" />
  
  <!-- Play Icon -->
  <polygon points="385,205 425,225 385,245" fill="white" />
  
  <!-- Video Progress Bar -->
  <rect x="100" y="390" width="600" height="6" rx="3" fill="#374151" />
  <rect x="100" y="390" width="220" height="6" rx="3" fill="#3b82f6" />
  
  <!-- Search UI Element -->
  <rect x="640" y="80" width="120" height="30" rx="15" fill="#1f2937" stroke="#4b5563" stroke-width="1" />
  <circle cx="655" cy="95" r="8" fill="none" stroke="#9ca3af" stroke-width="2" />
  <line x1="661" y1="101" x2="666" y2="106" stroke="#9ca3af" stroke-width="2" stroke-linecap="round" />
  
  <!-- Decorative Elements -->
  <circle cx="60" cy="60" r="10" fill="#ef4444" opacity="0.8" />
  <circle cx="90" cy="60" r="10" fill="#f59e0b" opacity="0.8" />
  <circle cx="120" cy="60" r="10" fill="#10b981" opacity="0.8" />
</svg>