<svg width="13" height="12" viewBox="0 0 13 12" fill="none" xmlns="http://www.w3.org/2000/svg">
<path d="M5.449 6.86538L6.5 6.23075L7.551 6.86538L7.27012 5.66637L8.19812 4.86637L6.98175 4.7635L6.5 3.63463L6.01825 4.7635L4.80187 4.86637L5.72988 5.66637L5.449 6.86538ZM3.25 10.125V2.65387C3.25 2.40129 3.3375 2.1875 3.5125 2.0125C3.6875 1.8375 3.90129 1.75 4.15387 1.75H8.84613C9.09871 1.75 9.3125 1.8375 9.4875 2.0125C9.6625 2.1875 9.75 2.40129 9.75 2.65387V10.125L6.5 8.73075L3.25 10.125ZM4 8.975L6.5 7.9L9 8.975V2.65387C9 2.61537 8.98396 2.58012 8.95188 2.54812C8.91988 2.51604 8.88462 2.5 8.84613 2.5H4.15387C4.11537 2.5 4.08013 2.51604 4.04813 2.54812C4.01604 2.58012 4 2.61537 4 2.65387V8.975Z" fill="#E3E3E3"/>
</svg>
