<svg width="12" height="12" viewBox="0 0 12 12" fill="none" xmlns="http://www.w3.org/2000/svg">
<path d="M5.625 1.75V8.3125H6.375V1.75H5.625ZM3.68275 3.20675V6.86062H4.43262V3.20675H3.68275ZM7.56738 3.20675V6.86062H8.31725V3.20675H7.56738ZM1.74037 4.65863V5.40863H2.49037V4.65863H1.74037ZM9.50963 4.65863V5.40863H10.2596V4.65863H9.50963ZM1.25 7.07688V7.82688H1.70775C2.06825 7.82688 2.40517 7.916 2.7185 8.09425C3.03183 8.27242 3.28175 8.51471 3.46825 8.82113C3.73558 9.26729 4.09367 9.61696 4.5425 9.87012C4.99133 10.1234 5.47721 10.25 6.00013 10.25C6.52313 10.25 7.00896 10.1234 7.45762 9.87012C7.90637 9.61696 8.26442 9.26729 8.53175 8.82113C8.71508 8.51471 8.96283 8.27242 9.275 8.09425C9.58717 7.916 9.92625 7.82688 10.2923 7.82688H10.75V7.07688H10.3C9.80708 7.07688 9.34538 7.19725 8.91488 7.438C8.48446 7.67867 8.14392 8.00958 7.89325 8.43075C7.69517 8.76542 7.428 9.02729 7.09175 9.21637C6.7555 9.40546 6.39158 9.5 6 9.5C5.61683 9.5 5.25713 9.40546 4.92088 9.21637C4.58454 9.02729 4.31733 8.76542 4.11925 8.43075C3.86542 8.00958 3.52325 7.67867 3.09275 7.438C2.66233 7.19725 2.20067 7.07688 1.70775 7.07688H1.25Z" fill="#E3E3E3"/>
</svg>
