<svg width="12" height="12" viewBox="0 0 12 12" fill="none" xmlns="http://www.w3.org/2000/svg">
<g id="search insights">
<path id="Vector" d="M5 8.00963C5.83333 8.00963 6.54167 7.7175 7.125 7.13325C7.70833 6.54892 8 5.83942 8 5.00475C8 4.17008 7.70833 3.46062 7.125 2.87637C6.54167 2.29212 5.83333 2 5 2C4.16667 2 3.45833 2.29212 2.875 2.87637C2.29167 3.46062 2 4.17008 2 5.00475C2 5.83942 2.29167 6.54892 2.875 7.13325C3.45833 7.7175 4.16667 8.00963 5 8.00963ZM4.625 6.399V3.15863H5.375V6.399H4.625ZM2.9135 6.399V4.13463H3.6635V6.399H2.9135ZM6.3365 6.399V4.625H7.0865V6.399H6.3365ZM10.2279 10.75L7.38075 7.90287C7.05508 8.16954 6.69008 8.37738 6.28575 8.52637C5.88142 8.67546 5.45283 8.75 5 8.75C3.95317 8.75 3.06646 8.38679 2.33988 7.66037C1.61329 6.93396 1.25 6.04742 1.25 5.00075C1.25 3.95408 1.61321 3.06729 2.33963 2.34037C3.06604 1.61346 3.95258 1.25 4.99925 1.25C6.04592 1.25 6.93271 1.61329 7.65963 2.33988C8.38654 3.06646 8.75 3.95317 8.75 5C8.75 5.45283 8.67546 5.88142 8.52637 6.28575C8.37738 6.69008 8.16954 7.0535 7.90287 7.376L10.75 10.2231L10.2279 10.75Z" fill="#E3E3E3"/>
</g>
</svg>
